Coordinates
version=1
nRows=10
nColumns=22
inDegrees=yes

Units are S.I. units (second, meters, Newtons, ...)
If the header above contains a line with 'inDegrees', this indicates whether rotational values are in degrees (yes) or radians (no).

endheader
time	pelvis_tilt	pelvis_list	pelvis_rotation	pelvis_tx	pelvis_ty	pelvis_tz	hip_flexion_r	hip_adduction_r	hip_rotation_r	knee_angle_r	ankle_angle_r	subtalar_angle_r	hip_flexion_l	hip_adduction_l	hip_rotation_l	knee_angle_l	ankle_angle_l	subtalar_angle_l	lumbar_extension	lumbar_bending	lumbar_rotation
      1.25000000	     -3.27697263	     -1.76999211	     -2.99525024	     -1.18710610	      0.95306498	      0.34267356	     11.42417375	      1.80816386	     -3.79320876	    -23.45742313	     15.08848383	     -2.27230287	      9.62417110	     -3.54278292	     -5.27695512	    -22.16608997	     13.41431238	     -6.12898958	     -4.94843536	      0.45656891	     -0.51749755
      1.26000000	     -3.30404490	     -1.71381829	     -3.00065518	     -1.18642342	      0.95296294	      0.34343444	     11.44897439	      1.80953055	     -3.72447108	    -23.54867075	     15.24300752	     -2.34372207	      9.53824335	     -3.53196928	     -5.31804536	    -22.04674145	     13.42301266	     -6.10682263	     -4.94689918	      0.41454397	     -0.57873719
      1.27000000	     -3.33425117	     -1.65693506	     -3.01293431	     -1.18568053	      0.95286204	      0.34426697	     11.46486516	      1.81627576	     -3.64498376	    -23.62508294	     15.40053251	     -2.41060926	      9.44625573	     -3.52578889	     -5.36627915	    -21.92048410	     13.43117038	     -6.07964909	     -4.94118898	      0.37003052	     -0.64132352
      1.28000000	     -3.35716792	     -1.59360579	     -3.04350083	     -1.18488883	      0.95277265	      0.34518987	     11.47145867	      1.82244714	     -3.54997868	    -23.70386432	     15.54661392	     -2.49706202	      9.33750085	     -3.52041609	     -5.43520210	    -21.78980990	     13.43589696	     -6.02923428	     -4.94583626	      0.31670769	     -0.69648478
      1.29000000	     -3.40875863	     -1.55713360	     -3.05531690	     -1.18401507	      0.95265162	      0.34616472	     11.46738858	      1.86304113	     -3.47155417	    -23.72024569	     15.69590304	     -2.53864020	      9.26032221	     -3.54703896	     -5.47338445	    -21.66797634	     13.45312732	     -6.00106033	     -4.91345915	      0.29563380	     -0.77787977
      1.30000000	     -3.45707978	     -1.51640943	     -3.08419603	     -1.18307181	      0.95252770	      0.34722888	     11.45589939	      1.90560851	     -3.37828589	    -23.73822541	     15.85073202	     -2.58777287	      9.17777238	     -3.57588871	     -5.52334333	    -21.55760832	     13.47267953	     -5.95714243	     -4.88208250	      0.26803282	     -0.85244910
      1.31000000	     -3.50853604	     -1.48619929	     -3.12068403	     -1.18208109	      0.95239769	      0.34838072	     11.43608126	      1.96669947	     -3.27953776	    -23.73937941	     15.98533368	     -2.64478501	      9.10295389	     -3.62339688	     -5.57386757	    -21.46476664	     13.49890877	     -5.89907384	     -4.85228485	      0.25060800	     -0.92631811
      1.32000000	     -3.56479983	     -1.47026143	     -3.16014832	     -1.18101024	      0.95225153	      0.34961502	     11.39988319	      2.05170044	     -3.16730842	    -23.71303510	     16.11387955	     -2.71065824	      9.04288477	     -3.69250970	     -5.61622606	    -21.40196014	     13.53704443	     -5.83219211	     -4.81253874	      0.24801815	     -0.99770745
      1.33000000	     -3.62065623	     -1.47325623	     -3.21715195	     -1.17988751	      0.95209080	      0.35094431	     11.35180609	      2.16648110	     -3.03311591	    -23.67073925	     16.22197241	     -2.79948499	      8.99797512	     -3.78903548	     -5.65476609	    -21.38210202	     13.59512932	     -5.74411837	     -4.77595878	      0.26777119	     -1.06246958
      1.34000000	     -3.67006469	     -1.50837424	     -3.29542314	     -1.17871957	      0.95192057	      0.35240955	     11.29351873	      2.33067727	     -2.87134806	    -23.62713738	     16.24480083	     -3.03144554	      8.96549426	     -3.93666932	     -5.72852563	    -21.41190990	     13.72488346	     -5.51868965	     -4.75330323	      0.31664651	     -1.09834537
